<?xml version="1.0" encoding="utf-8"?>
<!-- Generator: Adobe Illustrator 23.0.3, SVG Export Plug-In . SVG Version: 6.00 Build 0)  -->
<svg version="1.1" id="Layer_1" xmlns="http://www.w3.org/2000/svg" xmlns:xlink="http://www.w3.org/1999/xlink" x="0px" y="0px"
	 viewBox="0 0 2100 2100" style="enable-background:new 0 0 2100 2100;" xml:space="preserve">
<style type="text/css">
	.st0{display:none;}
	.st1{display:inline;fill:#818991;}
	.st2{fill:url(#SVGID_1_);}
	.st3{fill:url(#SVGID_2_);}
	.st4{fill:url(#SVGID_3_);}
	.st5{fill:#6E70FC;}
	.st6{fill:url(#SVGID_4_);}
	.st7{fill:url(#SVGID_5_);}
	.st8{fill:url(#SVGID_6_);}
	.st9{fill:url(#SVGID_7_);}
	.st10{fill:url(#SVGID_8_);}
	.st11{fill:url(#SVGID_9_);}
	.st12{fill:url(#SVGID_10_);}
	.st13{fill:url(#SVGID_11_);}
	.st14{fill:url(#SVGID_12_);}
	.st15{fill:url(#SVGID_13_);}
</style>
<g>
	<g>
		<g class="st0">
			<path class="st1" d="M643.43,1295.09c-3.99,2.9-8.29,5.41-12.89,7.54c-4.6,2.12-9.64,3.73-15.12,4.83
				c-5.48,1.1-11.54,1.65-18.17,1.65c-10.42,0-20.03-1.81-28.83-5.41c-8.79-3.61-16.4-8.53-22.83-14.78
				c-6.43-6.25-11.47-13.63-15.12-22.13c-3.65-8.51-5.48-17.65-5.48-27.45c0-9.66,1.79-18.75,5.37-27.25
				c3.59-8.51,8.63-15.95,15.13-22.32c6.49-6.38,14.21-11.4,23.14-15.07c8.93-3.68,18.81-5.51,29.63-5.51
				c6.5,0,12.42,0.51,17.76,1.54c5.34,1.03,10.25,2.48,14.72,4.35c4.47,1.87,8.59,4.09,12.38,6.67c3.79,2.58,7.37,5.41,10.75,8.51
				l-16.03,17.58c-5.68-5.03-11.7-9.09-18.07-12.17c-6.36-3.09-13.6-4.64-21.71-4.64c-6.77,0-13.03,1.26-18.78,3.77
				c-5.75,2.51-10.72,5.92-14.92,10.24c-4.2,4.32-7.44,9.37-9.74,15.17c-2.3,5.8-3.46,12.04-3.46,18.75c0,6.7,1.16,12.98,3.46,18.85
				c2.3,5.86,5.54,10.98,9.74,15.36c4.19,4.38,9.17,7.83,14.92,10.34c5.76,2.51,12.01,3.77,18.78,3.77c8.66,0,16.1-1.58,22.32-4.73
				c6.22-3.15,12.38-7.44,18.48-12.85l16.03,15.46C651.25,1288.88,647.42,1292.2,643.43,1295.09z"/>
			<path class="st1" d="M881.83,1306.79l-35.02-47.16h-31.36v47.16h-24.76v-135.28h63.33c8.12,0,15.46,1,22.02,2.99
				c6.56,2,12.11,4.83,16.64,8.51c4.53,3.67,8.02,8.18,10.46,13.53c2.44,5.34,3.65,11.3,3.65,17.87c0,5.67-0.85,10.72-2.54,15.17
				c-1.69,4.44-4.02,8.37-7,11.79c-2.97,3.41-6.53,6.31-10.65,8.69c-4.13,2.39-8.69,4.22-13.7,5.51l38.36,51.21H881.83z
				 M873.69,1198.69c-5.16-3.82-12.42-5.73-21.79-5.73h-36.45v45.61h36.66c8.96,0,16.08-2.07,21.37-6.21
				c5.3-4.15,7.94-9.71,7.94-16.7C881.43,1208.16,878.84,1202.5,873.69,1198.69z"/>
			<path class="st1" d="M1152.19,1192.96h-80.38v34.79h71.24v21.46h-71.24v36.14h81.4v21.45h-106.16v-135.28h105.15V1192.96z"/>
			<path class="st1" d="M1428.65,1306.79h-26.39l-14.41-32.66h-67.19l-14.61,32.66h-25.58l62.52-136.25h23.14L1428.65,1306.79z
				 M1354.15,1198.95l-24.36,54.11h48.92L1354.15,1198.95z"/>
			<path class="st1" d="M1604.42,1306.79h-25.17v-113.25h-45.06v-22.03h115.29v22.03h-45.07V1306.79z"/>
			<path class="st1" d="M1811.67,1171.51v135.28h-24.76v-135.28H1811.67z"/>
			<path class="st1" d="M2060.3,1171.51h27l-59.07,136.24h-21.92l-59.07-136.24h27.61l42.82,103.97L2060.3,1171.51z"/>
			<path class="st1" d="M2326.41,1192.96h-80.38v34.79h71.25v21.46h-71.25v36.14h81.4v21.45h-106.16v-135.28h105.15V1192.96z"/>
		</g>
		<g class="st0">
			<path class="st1" d="M894.07,1443.87c-2.09,4.55-5.05,8.49-8.87,11.82c-3.83,3.34-8.4,5.97-13.69,7.89
				c-5.3,1.92-11.11,2.87-17.46,2.87h-27.02v-74.57h27.02c6.34,0,12.16,0.94,17.46,2.82c5.3,1.89,9.86,4.49,13.69,7.84
				c3.82,3.33,6.78,7.26,8.87,11.77c2.09,4.51,3.13,9.4,3.13,14.65v0.21C897.2,1434.43,896.15,1439.33,894.07,1443.87z
				 M890.94,1429.17c0-4.42-0.87-8.59-2.61-12.5c-1.74-3.92-4.2-7.34-7.37-10.27c-3.17-2.92-7.04-5.23-11.6-6.94
				c-4.57-1.71-9.66-2.57-15.31-2.57h-20.99v64.56h20.99c5.65,0,10.75-0.84,15.31-2.51c4.56-1.68,8.42-3.95,11.6-6.84
				c3.17-2.89,5.63-6.28,7.37-10.16c1.74-3.88,2.61-8.07,2.61-12.56V1429.17z"/>
			<path class="st1" d="M1070.83,1466.46v-74.57h57.76v5.01h-51.73v29.51h46.51v5.01h-46.51v30.04h52.31v5.01H1070.83z"/>
			<path class="st1" d="M1354.01,1455.43c-1.35,2.52-3.21,4.67-5.56,6.44c-2.36,1.78-5.18,3.17-8.47,4.15
				c-3.29,0.99-6.9,1.49-10.85,1.49c-6.5,0-12.35-0.99-17.57-2.98c-5.23-1.99-10.27-4.97-15.14-8.95l3.94-4.15
				c2.24,1.92,4.46,3.57,6.67,4.95c2.2,1.38,4.47,2.52,6.78,3.41c2.32,0.89,4.76,1.56,7.31,2.02c2.56,0.46,5.34,0.7,8.35,0.7
				c3.02,0,5.8-0.38,8.35-1.12c2.55-0.75,4.72-1.78,6.49-3.09c1.78-1.31,3.17-2.88,4.18-4.69c1.01-1.82,1.51-3.79,1.51-5.92v-0.21
				c0-1.99-0.33-3.77-0.98-5.33c-0.66-1.56-1.85-2.98-3.6-4.26c-1.74-1.28-4.08-2.43-7.02-3.46c-2.94-1.03-6.73-1.97-11.37-2.83
				c-4.87-0.92-9.05-2-12.52-3.24c-3.48-1.24-6.32-2.7-8.53-4.37c-2.2-1.67-3.81-3.6-4.81-5.81c-1.01-2.2-1.51-4.72-1.51-7.56v-0.21
				c0-2.77,0.66-5.34,1.97-7.73c1.32-2.38,3.13-4.45,5.45-6.23c2.32-1.78,5.06-3.16,8.23-4.15c3.17-0.99,6.65-1.5,10.44-1.5
				c5.88,0,10.96,0.75,15.25,2.24c4.3,1.5,8.49,3.77,12.59,6.82l-3.83,4.37c-3.86-3.06-7.75-5.22-11.65-6.5
				c-3.91-1.27-8.11-1.92-12.59-1.92c-3.02,0-5.74,0.38-8.18,1.12c-2.44,0.75-4.52,1.76-6.27,3.04c-1.74,1.28-3.07,2.77-4,4.48
				c-0.93,1.7-1.4,3.51-1.4,5.43v0.21c0,1.99,0.33,3.78,0.99,5.38c0.65,1.6,1.85,3.06,3.6,4.37c1.73,1.31,4.16,2.5,7.25,3.57
				c3.09,1.07,7.03,2.06,11.83,2.98c9.43,1.78,16.23,4.28,20.41,7.51c4.18,3.23,6.27,7.58,6.27,13.05v0.21
				C1356.04,1450.15,1355.36,1452.91,1354.01,1455.43z"/>
			<path class="st1" d="M1529.79,1466.46v-74.57h6.03v74.57H1529.79z"/>
			<path class="st1" d="M1769.24,1464.39c-5.45,2.23-11.51,3.35-18.15,3.35c-6.42,0-12.16-1.01-17.22-3.04
				c-5.06-2.03-9.34-4.78-12.81-8.26c-3.48-3.48-6.15-7.55-8.01-12.2c-1.85-4.65-2.78-9.6-2.78-14.86v-0.21
				c0-5.05,0.95-9.89,2.84-14.55c1.9-4.65,4.6-8.75,8.12-12.3c3.52-3.55,7.75-6.39,12.7-8.53c4.95-2.13,10.44-3.19,16.47-3.19
				c3.32,0,6.36,0.21,9.1,0.64c2.75,0.42,5.3,1.07,7.65,1.92c2.36,0.85,4.6,1.88,6.73,3.09c2.12,1.21,4.19,2.6,6.2,4.15l-3.94,4.16
				c-3.17-2.56-6.78-4.69-10.85-6.39c-4.06-1.7-9.15-2.55-15.25-2.55c-4.95,0-9.47,0.88-13.57,2.66c-4.1,1.77-7.64,4.18-10.61,7.23
				c-2.98,3.05-5.28,6.59-6.9,10.64c-1.63,4.04-2.44,8.3-2.44,12.76v0.21c0,4.83,0.79,9.29,2.38,13.4c1.58,4.12,3.89,7.66,6.9,10.64
				c3.02,2.98,6.67,5.32,10.97,7.02c4.29,1.7,9.14,2.56,14.55,2.56c2.55,0,5.06-0.23,7.54-0.69c2.47-0.46,4.81-1.08,7.02-1.86
				c2.2-0.78,4.28-1.69,6.21-2.71c1.93-1.03,3.63-2.11,5.1-3.24v-21.33h-27.14v-5.01h32.94v28.69
				C1779.28,1459.56,1774.69,1462.16,1769.24,1464.39z"/>
			<path class="st1" d="M2020.88,1466.46l-57.18-66.26v66.26h-5.8v-74.57h5.68l56.02,64.88v-64.88h5.8v74.57H2020.88z"/>
		</g>
	</g>
	<g>
		<linearGradient id="SVGID_1_" gradientUnits="userSpaceOnUse" x1="390.3618" y1="697.322" x2="1722.9385" y2="697.322">
			<stop  offset="0" style="stop-color:#DA52FC"/>
			<stop  offset="0.1518" style="stop-color:#D354FC"/>
			<stop  offset="0.3791" style="stop-color:#BE5AFC"/>
			<stop  offset="0.6537" style="stop-color:#9D63FC"/>
			<stop  offset="0.963" style="stop-color:#6F70FC"/>
			<stop  offset="0.9669" style="stop-color:#6E70FC"/>
		</linearGradient>
		<path class="st2" d="M1722.94,1137.45l-75.1-42.71l-103.49-59.09V981.3c0-4.73-3.88-8.74-8.73-8.74h-34.94
			c-4.85,0-8.74,4-8.74,8.74v24.51l-126.3-72.07V872.1c0-4.73-4-8.74-8.86-8.74h-34.94c-4.85,0-8.73,4-8.73,8.74v28.88h-4.98
			l-16.14-9.22L1164.7,819.2c-0.61-46.11-1.58-92.21-2.91-138.2c-0.12-5.46-0.24-10.92-0.49-16.38c0-0.12-0.12-0.12-0.12-0.12
			c-1.09-34.58-4.01-69.28-16.86-101.43c-14.92-37.25-46.11-70.98-87.24-79.35h-0.24c-41.13,8.37-72.32,42.1-87.24,79.35
			c-12.86,32.03-15.77,66.73-16.86,101.31c-0.12,0-0.12,0.24-0.12,0.24c-0.24,5.46-0.36,10.92-0.49,16.38
			c-1.21,45.98-2.18,92.09-2.79,138.2l-127.64,72.68V892l-15.9,8.98h-4.85V872.1c0-4.73-4-8.74-8.73-8.74h-35.07
			c-4.85,0-8.73,4-8.73,8.74v61.63l-126.31,71.95V981.3c0-4.73-4-8.74-8.73-8.74H578.3c-4.85,0-8.74,4-8.74,8.74v54.36l-40.04,22.81
			l-139.16,79.35l507.16-880.98h318.86l370.42,644.15l61.03,106.04L1722.94,1137.45z"/>
		<linearGradient id="SVGID_2_" gradientUnits="userSpaceOnUse" x1="1554.238" y1="1224.2931" x2="1556.619" y2="1224.2931">
			<stop  offset="0" style="stop-color:#DA52FC"/>
			<stop  offset="0" style="stop-color:#D354FC"/>
			<stop  offset="0" style="stop-color:#BE5AFC"/>
			<stop  offset="0" style="stop-color:#9D63FC"/>
			<stop  offset="0" style="stop-color:#6F70FC"/>
			<stop  offset="0" style="stop-color:#6E70FC"/>
		</linearGradient>
		<path class="st3" d="M948.62,969.11c-164.39,91.37-300.86,225.55-394.53,388.41l-70.33,121.95H193.59l170.88-296.66v1.91
			l206.83-76.46l159.8-58.87l191.91-70.72L948.62,969.11z"/>
		<linearGradient id="SVGID_3_" gradientUnits="userSpaceOnUse" x1="1165.3756" y1="1224.2931" x2="1919.6433" y2="1224.2931">
			<stop  offset="0" style="stop-color:#DA52FC"/>
			<stop  offset="0.0554" style="stop-color:#CD55FC"/>
			<stop  offset="0.2298" style="stop-color:#AB5FFC"/>
			<stop  offset="0.4076" style="stop-color:#9066FC"/>
			<stop  offset="0.5879" style="stop-color:#7D6CFC"/>
			<stop  offset="0.7723" style="stop-color:#726FFC"/>
			<stop  offset="0.9669" style="stop-color:#6E70FC"/>
		</linearGradient>
		<path class="st4" d="M1919.64,1479.47h-290.16l-69.96-121.57c-93.66-163.24-229.76-297.42-394.14-388.79l25.62,9.56l191.53,70.72
			l160.18,58.87l206.43,76.46l0.38-1.15L1919.64,1479.47z"/>
	</g>
</g>
<g>
	<path class="st5" d="M358.39,1793.62l-16.17-42.9h-80.19l-16.17,42.9c-3.08,7.7-8.42,11.55-16,11.55c-7.59,0-13.04-2.69-16.33-8.08
		c-3.3-5.39-3.96-10.94-1.98-16.67l72.93-194.37c1.54-3.52,3.9-6.38,7.1-8.58c3.19-2.2,6.65-3.19,10.4-2.97
		c8.36-0.44,14.19,3.41,17.49,11.55l72.93,194.37c1.98,5.72,1.32,11.28-1.98,16.67c-3.3,5.39-8.75,8.08-16.33,8.08
		C366.47,1805.17,361.24,1801.32,358.39,1793.62z M275.23,1714.42h53.46l-26.73-70.95L275.23,1714.42z"/>
	<path class="st5" d="M532.63,1803.85c-0.66,0-1.65-0.66-2.97-1.98h-0.33c-0.22-0.22-0.99-0.77-2.31-1.65
		c-0.22-0.44-0.55-0.93-0.99-1.48c-0.44-0.55-0.77-0.93-0.99-1.16c-0.22-0.22-0.5-0.71-0.83-1.49c-0.33-0.77-0.72-1.37-1.15-1.81
		l-80.85-192.72c-1.98-4.4-2.04-8.96-0.17-13.69c1.87-4.73,5.22-7.97,10.06-9.74c4.4-1.98,8.91-2.03,13.53-0.17
		c4.62,1.87,7.92,5.12,9.9,9.74l64.35,152.79l64.35-152.79c1.98-4.62,5.33-7.86,10.06-9.74c4.73-1.87,9.29-1.81,13.69,0.17
		c4.62,1.76,7.86,5.01,9.73,9.74c1.87,4.73,1.92,9.3,0.17,13.69l-81.51,192.72l-1.32,2.64c0,0.22-0.11,0.44-0.33,0.66l-4.29,4.29
		c-0.44,0.44-1.16,0.88-2.15,1.32c-0.99,0.44-2.48,0.99-4.46,1.65h-0.66c-0.88,0.22-2.04,0.33-3.46,0.33
		c-1.43,0-2.48-0.11-3.14-0.33h-0.66c-0.88-0.44-1.76-0.66-2.64-0.66l-0.33-0.33H532.63z"/>
	<path class="st5" d="M720.4,1592.32c0-5.06,1.76-9.35,5.28-12.87c3.52-3.52,7.81-5.28,12.87-5.28c5.06,0,9.41,1.76,13.04,5.28
		c3.63,3.52,5.44,7.81,5.44,12.87v194.7c0,5.06-1.81,9.35-5.44,12.87c-3.63,3.52-7.98,5.28-13.04,5.28c-5.06,0-9.35-1.76-12.87-5.28
		c-3.52-3.52-5.28-7.81-5.28-12.87V1592.32z"/>
	<path class="st5" d="M969.21,1793.62l-16.17-42.9h-80.19l-16.17,42.9c-3.08,7.7-8.41,11.55-16,11.55s-13.04-2.69-16.33-8.08
		c-3.3-5.39-3.96-10.94-1.98-16.67l72.93-194.37c1.54-3.52,3.9-6.38,7.09-8.58c3.19-2.2,6.65-3.19,10.4-2.97
		c8.36-0.44,14.19,3.41,17.49,11.55l72.93,194.37c1.98,5.72,1.32,11.28-1.98,16.67c-3.3,5.39-8.74,8.08-16.33,8.08
		C977.3,1805.17,972.07,1801.32,969.21,1793.62z M886.05,1714.42h53.46l-26.73-70.95L886.05,1714.42z"/>
	<path class="st5" d="M1219.02,1579.45c3.52,3.52,5.28,7.81,5.28,12.87c0,5.06-1.82,9.4-5.45,13.03c-3.63,3.63-7.87,5.45-12.71,5.45
		h-52.47v176.22c0,5.06-1.76,9.35-5.28,12.87c-3.52,3.52-7.81,5.28-12.87,5.28c-5.06,0-9.35-1.76-12.87-5.28
		c-3.52-3.52-5.28-7.81-5.28-12.87V1610.8h-52.14c-5.06,0-9.35-1.81-12.87-5.45c-3.52-3.63-5.28-7.97-5.28-13.03
		c0-5.06,1.76-9.35,5.28-12.87c3.52-3.52,7.81-5.28,12.87-5.28h140.91C1211.21,1574.17,1215.5,1575.93,1219.02,1579.45z"/>
	<path class="st5" d="M1297.56,1592.32c0-5.06,1.76-9.35,5.28-12.87c3.52-3.52,7.81-5.28,12.87-5.28c5.06,0,9.4,1.76,13.04,5.28
		c3.63,3.52,5.44,7.81,5.44,12.87v194.7c0,5.06-1.81,9.35-5.44,12.87c-3.63,3.52-7.98,5.28-13.04,5.28c-5.06,0-9.35-1.76-12.87-5.28
		c-3.52-3.52-5.28-7.81-5.28-12.87V1592.32z"/>
	<path class="st5" d="M1435,1770.19c-21.89-23.32-32.83-51.26-32.83-83.82c0-32.56,10.94-60.5,32.83-83.82
		c21.89-23.32,48.56-34.98,80.03-34.98c31.46,0,58.13,11.83,80.02,35.47c21.89,23.65,32.83,51.54,32.83,83.66
		c0,32.12-11.11,59.84-33.33,83.16c-9.9,11-21.78,19.63-35.64,25.9c-13.86,6.27-28.27,9.41-43.23,9.41
		C1483.79,1805.17,1456.89,1793.51,1435,1770.19z M1439.79,1686.37c0,22.22,7.37,41.31,22.11,57.25
		c14.74,15.95,32.5,23.92,53.29,23.92s38.5-8.08,53.13-24.25c14.63-16.17,21.95-35.14,21.95-56.92s-7.26-40.75-21.78-56.92
		c-14.52-16.17-32.29-24.26-53.29-24.26c-21.01,0-38.83,7.98-53.46,23.93C1447.1,1645.07,1439.79,1664.15,1439.79,1686.37z"/>
	<path class="st5" d="M1745.69,1650.07v136.95c0,4.84-1.76,9.08-5.28,12.71c-3.52,3.63-7.75,5.45-12.71,5.45s-9.19-1.76-12.71-5.28
		c-3.52-3.52-5.28-7.81-5.28-12.87v-192.06c-0.44-6.38,1.7-11.22,6.43-14.52c4.73-3.3,9.51-4.56,14.36-3.79
		c4.84,0.77,8.69,3.14,11.55,7.1l106.59,147.51v-135.96c0-4.84,1.76-9.02,5.28-12.54c3.52-3.52,7.7-5.28,12.54-5.28
		c4.84,0,9.07,1.76,12.71,5.28c3.63,3.52,5.44,7.7,5.44,12.54v191.73c0,5.06-1.81,9.35-5.44,12.87c-3.63,3.52-7.98,5.28-13.04,5.28
		c-5.06,0-9.46-2.2-13.2-6.6c-0.88-0.88-1.43-1.54-1.65-1.98L1745.69,1650.07z"/>
</g>
<g>
	<g>
		<linearGradient id="SVGID_4_" gradientUnits="userSpaceOnUse" x1="484.0503" y1="1411.479" x2="1401.8223" y2="1411.479">
			<stop  offset="0" style="stop-color:#DA52FC"/>
			<stop  offset="0.0386" style="stop-color:#CD55FC"/>
			<stop  offset="0.16" style="stop-color:#AB5FFC"/>
			<stop  offset="0.2837" style="stop-color:#9066FC"/>
			<stop  offset="0.4093" style="stop-color:#7D6CFC"/>
			<stop  offset="0.5377" style="stop-color:#726FFC"/>
			<stop  offset="0.6732" style="stop-color:#6E70FC"/>
		</linearGradient>
		<path class="st6" d="M805.63,1482.43h-79.2c-1.47,0-2.72-0.51-3.74-1.54c-1.03-1.02-1.54-2.27-1.54-3.74v-143.44
			c0-1.46,0.51-2.71,1.54-3.74c1.02-1.02,2.27-1.54,3.74-1.54c1.46,0,2.75,0.52,3.85,1.54c1.1,1.03,1.65,2.28,1.65,3.74v137.94h73.7
			c1.46,0,2.75,0.55,3.85,1.65c1.1,1.1,1.65,2.39,1.65,3.85c0,1.47-0.55,2.72-1.65,3.74
			C808.38,1481.92,807.09,1482.43,805.63,1482.43z"/>
		<linearGradient id="SVGID_5_" gradientUnits="userSpaceOnUse" x1="484.0503" y1="1411.479" x2="1401.8223" y2="1411.479">
			<stop  offset="0" style="stop-color:#DA52FC"/>
			<stop  offset="0.0386" style="stop-color:#CD55FC"/>
			<stop  offset="0.16" style="stop-color:#AB5FFC"/>
			<stop  offset="0.2837" style="stop-color:#9066FC"/>
			<stop  offset="0.4093" style="stop-color:#7D6CFC"/>
			<stop  offset="0.5377" style="stop-color:#726FFC"/>
			<stop  offset="0.6732" style="stop-color:#6E70FC"/>
		</linearGradient>
		<path class="st7" d="M845.01,1477.15v-143.44c0-1.46,0.51-2.71,1.54-3.74c1.02-1.02,2.27-1.54,3.74-1.54h79.2
			c1.46,0,2.71,0.52,3.74,1.54c1.02,1.03,1.54,2.31,1.54,3.85s-0.52,2.83-1.54,3.85c-1.03,1.03-2.28,1.54-3.74,1.54h-73.7v60.94
			h64.46c1.46,0,2.71,0.55,3.74,1.65c1.02,1.1,1.54,2.39,1.54,3.85c0,1.47-0.52,2.72-1.54,3.74c-1.03,1.03-2.28,1.54-3.74,1.54
			h-64.46v60.72h73.7c1.46,0,2.71,0.52,3.74,1.54c1.02,1.03,1.54,2.31,1.54,3.85s-0.52,2.83-1.54,3.85
			c-1.03,1.03-2.28,1.54-3.74,1.54h-79.64c-1.32-0.14-2.46-0.69-3.41-1.65C845.48,1479.83,845.01,1478.62,845.01,1477.15z"/>
		<linearGradient id="SVGID_6_" gradientUnits="userSpaceOnUse" x1="484.0503" y1="1411.479" x2="1401.8223" y2="1411.479">
			<stop  offset="0" style="stop-color:#DA52FC"/>
			<stop  offset="0.0386" style="stop-color:#CD55FC"/>
			<stop  offset="0.16" style="stop-color:#AB5FFC"/>
			<stop  offset="0.2837" style="stop-color:#9066FC"/>
			<stop  offset="0.4093" style="stop-color:#7D6CFC"/>
			<stop  offset="0.5377" style="stop-color:#726FFC"/>
			<stop  offset="0.6732" style="stop-color:#6E70FC"/>
		</linearGradient>
		<path class="st8" d="M1080.4,1482.21l-1.98,0.22c-2.5,0-4.18-1.17-5.06-3.52l-13.64-36.3h-70.18l-13.64,36.3
			c-0.88,2.35-2.57,3.52-5.06,3.52l-1.98-0.22c-1.32-0.58-2.31-1.57-2.97-2.97c-0.66-1.39-0.7-2.75-0.11-4.07l53.46-142.78
			c1.02-2.2,2.86-3.3,5.5-3.3c2.64,0,4.32,1.1,5.06,3.3l53.46,142.78c0.58,1.32,0.58,2.68,0,4.07
			C1082.68,1480.63,1081.72,1481.62,1080.4,1482.21z M1024.74,1349.11l-31.24,82.72h62.26L1024.74,1349.11z"/>
		<linearGradient id="SVGID_7_" gradientUnits="userSpaceOnUse" x1="484.0503" y1="1411.479" x2="1401.8223" y2="1411.479">
			<stop  offset="0" style="stop-color:#DA52FC"/>
			<stop  offset="0.0386" style="stop-color:#CD55FC"/>
			<stop  offset="0.16" style="stop-color:#AB5FFC"/>
			<stop  offset="0.2837" style="stop-color:#9066FC"/>
			<stop  offset="0.4093" style="stop-color:#7D6CFC"/>
			<stop  offset="0.5377" style="stop-color:#726FFC"/>
			<stop  offset="0.6732" style="stop-color:#6E70FC"/>
		</linearGradient>
		<path class="st9" d="M1208.22,1480.01c-9.39,0-14.08-10.78-14.08-32.34c0-9.38-4.18-17.16-12.54-23.32
			c-6.02-4.25-12.18-6.89-18.48-7.92c-0.15-0.14-0.3-0.22-0.44-0.22h-37.4v60.94c0,1.47-0.55,2.72-1.65,3.74
			c-1.1,1.03-2.39,1.54-3.85,1.54c-1.47,0-2.72-0.51-3.74-1.54c-1.03-1.02-1.54-2.27-1.54-3.74v-143.44c0-1.32,0.47-2.49,1.43-3.52
			c0.95-1.02,2.09-1.61,3.41-1.76h44c12.17,0,22.51,4.29,31.02,12.87c8.5,8.58,12.76,18.96,12.76,31.13
			c0,8.66-2.31,16.58-6.93,23.76c-4.62,7.19-10.75,12.54-18.37,16.06l2.2,1.1c5.86,3.38,10.78,7.92,14.74,13.64
			c3.96,5.72,5.94,13.5,5.94,23.32c0,9.83,1.39,16.14,4.18,18.92c3.08-0.29,5.06,0.88,5.94,3.52c0.73,3.52-0.44,5.87-3.52,7.04
			h-0.44l-2.2,0.22H1208.22z M1187.1,1395.53c6.3-6.45,9.46-14.22,9.46-23.32c0-9.09-3.27-16.86-9.79-23.32
			c-6.53-6.45-14.34-9.68-23.43-9.68h-38.06v66.44h38.94C1173.17,1405.36,1180.79,1401.98,1187.1,1395.53z"/>
		<linearGradient id="SVGID_8_" gradientUnits="userSpaceOnUse" x1="484.0503" y1="1411.479" x2="1401.8223" y2="1411.479">
			<stop  offset="0" style="stop-color:#DA52FC"/>
			<stop  offset="0.0386" style="stop-color:#CD55FC"/>
			<stop  offset="0.16" style="stop-color:#AB5FFC"/>
			<stop  offset="0.2837" style="stop-color:#9066FC"/>
			<stop  offset="0.4093" style="stop-color:#7D6CFC"/>
			<stop  offset="0.5377" style="stop-color:#726FFC"/>
			<stop  offset="0.6732" style="stop-color:#6E70FC"/>
		</linearGradient>
		<path class="st10" d="M1358.7,1479.57l-92.4-128.48v126.06c0,1.47-0.52,2.72-1.54,3.74c-1.03,1.03-2.28,1.54-3.74,1.54
			c-1.47,0-2.72-0.51-3.74-1.54c-1.03-1.02-1.54-2.27-1.54-3.74v-141.24c-0.74-2.34-0.3-4.1,1.32-5.28
			c1.61-1.17,3.19-1.65,4.73-1.43c1.54,0.22,2.67,0.92,3.41,2.09l93.28,129.36v-125.4c0-1.46,0.51-2.71,1.54-3.74
			c1.02-1.02,2.27-1.54,3.74-1.54c1.46,0,2.75,0.52,3.85,1.54c1.1,1.03,1.65,2.28,1.65,3.74v141.9c0,1.47-0.55,2.72-1.65,3.74
			c-1.1,1.03-2.46,1.54-4.07,1.54c-1.62,0-2.94-0.66-3.96-1.98L1358.7,1479.57z"/>
	</g>
	<g>
		<path class="st5" d="M805.63,1482.43h-79.2c-1.47,0-2.72-0.51-3.74-1.54c-1.03-1.02-1.54-2.27-1.54-3.74v-143.44
			c0-1.46,0.51-2.71,1.54-3.74c1.02-1.02,2.27-1.54,3.74-1.54c1.46,0,2.75,0.52,3.85,1.54c1.1,1.03,1.65,2.28,1.65,3.74v137.94h73.7
			c1.46,0,2.75,0.55,3.85,1.65c1.1,1.1,1.65,2.39,1.65,3.85c0,1.47-0.55,2.72-1.65,3.74
			C808.38,1481.92,807.09,1482.43,805.63,1482.43z"/>
		<path class="st5" d="M845.01,1477.15v-143.44c0-1.46,0.51-2.71,1.54-3.74c1.02-1.02,2.27-1.54,3.74-1.54h79.2
			c1.46,0,2.71,0.52,3.74,1.54c1.02,1.03,1.54,2.31,1.54,3.85s-0.52,2.83-1.54,3.85c-1.03,1.03-2.28,1.54-3.74,1.54h-73.7v60.94
			h64.46c1.46,0,2.71,0.55,3.74,1.65c1.02,1.1,1.54,2.39,1.54,3.85c0,1.47-0.52,2.72-1.54,3.74c-1.03,1.03-2.28,1.54-3.74,1.54
			h-64.46v60.72h73.7c1.46,0,2.71,0.52,3.74,1.54c1.02,1.03,1.54,2.31,1.54,3.85s-0.52,2.83-1.54,3.85
			c-1.03,1.03-2.28,1.54-3.74,1.54h-79.64c-1.32-0.14-2.46-0.69-3.41-1.65C845.48,1479.83,845.01,1478.62,845.01,1477.15z"/>
		<path class="st5" d="M1080.4,1482.21l-1.98,0.22c-2.5,0-4.18-1.17-5.06-3.52l-13.64-36.3h-70.18l-13.64,36.3
			c-0.88,2.35-2.57,3.52-5.06,3.52l-1.98-0.22c-1.32-0.58-2.31-1.57-2.97-2.97c-0.66-1.39-0.7-2.75-0.11-4.07l53.46-142.78
			c1.02-2.2,2.86-3.3,5.5-3.3c2.64,0,4.32,1.1,5.06,3.3l53.46,142.78c0.58,1.32,0.58,2.68,0,4.07
			C1082.68,1480.63,1081.72,1481.62,1080.4,1482.21z M1024.74,1349.11l-31.24,82.72h62.26L1024.74,1349.11z"/>
		<path class="st5" d="M1208.22,1480.01c-9.39,0-14.08-10.78-14.08-32.34c0-9.38-4.18-17.16-12.54-23.32
			c-6.02-4.25-12.18-6.89-18.48-7.92c-0.15-0.14-0.3-0.22-0.44-0.22h-37.4v60.94c0,1.47-0.55,2.72-1.65,3.74
			c-1.1,1.03-2.39,1.54-3.85,1.54c-1.47,0-2.72-0.51-3.74-1.54c-1.03-1.02-1.54-2.27-1.54-3.74v-143.44c0-1.32,0.47-2.49,1.43-3.52
			c0.95-1.02,2.09-1.61,3.41-1.76h44c12.17,0,22.51,4.29,31.02,12.87c8.5,8.58,12.76,18.96,12.76,31.13
			c0,8.66-2.31,16.58-6.93,23.76c-4.62,7.19-10.75,12.54-18.37,16.06l2.2,1.1c5.86,3.38,10.78,7.92,14.74,13.64
			c3.96,5.72,5.94,13.5,5.94,23.32c0,9.83,1.39,16.14,4.18,18.92c3.08-0.29,5.06,0.88,5.94,3.52c0.73,3.52-0.44,5.87-3.52,7.04
			h-0.44l-2.2,0.22H1208.22z M1187.1,1395.53c6.3-6.45,9.46-14.22,9.46-23.32c0-9.09-3.27-16.86-9.79-23.32
			c-6.53-6.45-14.34-9.68-23.43-9.68h-38.06v66.44h38.94C1173.17,1405.36,1180.79,1401.98,1187.1,1395.53z"/>
		<path class="st5" d="M1358.7,1479.57l-92.4-128.48v126.06c0,1.47-0.52,2.72-1.54,3.74c-1.03,1.03-2.28,1.54-3.74,1.54
			c-1.47,0-2.72-0.51-3.74-1.54c-1.03-1.02-1.54-2.27-1.54-3.74v-141.24c-0.74-2.34-0.3-4.1,1.32-5.28
			c1.61-1.17,3.19-1.65,4.73-1.43c1.54,0.22,2.67,0.92,3.41,2.09l93.28,129.36v-125.4c0-1.46,0.51-2.71,1.54-3.74
			c1.02-1.02,2.27-1.54,3.74-1.54c1.46,0,2.75,0.52,3.85,1.54c1.1,1.03,1.65,2.28,1.65,3.74v141.9c0,1.47-0.55,2.72-1.65,3.74
			c-1.1,1.03-2.46,1.54-4.07,1.54c-1.62,0-2.94-0.66-3.96-1.98L1358.7,1479.57z"/>
	</g>
</g>
<g>
	<g>
		<linearGradient id="SVGID_9_" gradientUnits="userSpaceOnUse" x1="489.0503" y1="1411.479" x2="1406.8223" y2="1411.479">
			<stop  offset="0" style="stop-color:#DA52FC"/>
			<stop  offset="0.0386" style="stop-color:#CD55FC"/>
			<stop  offset="0.16" style="stop-color:#AB5FFC"/>
			<stop  offset="0.2837" style="stop-color:#9066FC"/>
			<stop  offset="0.4093" style="stop-color:#7D6CFC"/>
			<stop  offset="0.5377" style="stop-color:#726FFC"/>
			<stop  offset="0.6732" style="stop-color:#6E70FC"/>
		</linearGradient>
		<path class="st11" d="M810.63,1482.43h-79.2c-1.47,0-2.72-0.51-3.74-1.54c-1.03-1.02-1.54-2.27-1.54-3.74v-143.44
			c0-1.46,0.51-2.71,1.54-3.74c1.02-1.02,2.27-1.54,3.74-1.54c1.46,0,2.75,0.52,3.85,1.54c1.1,1.03,1.65,2.28,1.65,3.74v137.94h73.7
			c1.46,0,2.75,0.55,3.85,1.65c1.1,1.1,1.65,2.39,1.65,3.85c0,1.47-0.55,2.72-1.65,3.74
			C813.38,1481.92,812.09,1482.43,810.63,1482.43z"/>
		<linearGradient id="SVGID_10_" gradientUnits="userSpaceOnUse" x1="489.0503" y1="1411.479" x2="1406.8223" y2="1411.479">
			<stop  offset="0" style="stop-color:#DA52FC"/>
			<stop  offset="0.0386" style="stop-color:#CD55FC"/>
			<stop  offset="0.16" style="stop-color:#AB5FFC"/>
			<stop  offset="0.2837" style="stop-color:#9066FC"/>
			<stop  offset="0.4093" style="stop-color:#7D6CFC"/>
			<stop  offset="0.5377" style="stop-color:#726FFC"/>
			<stop  offset="0.6732" style="stop-color:#6E70FC"/>
		</linearGradient>
		<path class="st12" d="M850.01,1477.15v-143.44c0-1.46,0.51-2.71,1.54-3.74c1.02-1.02,2.27-1.54,3.74-1.54h79.2
			c1.46,0,2.71,0.52,3.74,1.54c1.02,1.03,1.54,2.31,1.54,3.85s-0.52,2.83-1.54,3.85c-1.03,1.03-2.28,1.54-3.74,1.54h-73.7v60.94
			h64.46c1.46,0,2.71,0.55,3.74,1.65c1.02,1.1,1.54,2.39,1.54,3.85c0,1.47-0.52,2.72-1.54,3.74c-1.03,1.03-2.28,1.54-3.74,1.54
			h-64.46v60.72h73.7c1.46,0,2.71,0.52,3.74,1.54c1.02,1.03,1.54,2.31,1.54,3.85s-0.52,2.83-1.54,3.85
			c-1.03,1.03-2.28,1.54-3.74,1.54h-79.64c-1.32-0.14-2.46-0.69-3.41-1.65C850.48,1479.83,850.01,1478.62,850.01,1477.15z"/>
		<linearGradient id="SVGID_11_" gradientUnits="userSpaceOnUse" x1="489.0503" y1="1411.479" x2="1406.8223" y2="1411.479">
			<stop  offset="0" style="stop-color:#DA52FC"/>
			<stop  offset="0.0386" style="stop-color:#CD55FC"/>
			<stop  offset="0.16" style="stop-color:#AB5FFC"/>
			<stop  offset="0.2837" style="stop-color:#9066FC"/>
			<stop  offset="0.4093" style="stop-color:#7D6CFC"/>
			<stop  offset="0.5377" style="stop-color:#726FFC"/>
			<stop  offset="0.6732" style="stop-color:#6E70FC"/>
		</linearGradient>
		<path class="st13" d="M1085.4,1482.21l-1.98,0.22c-2.5,0-4.18-1.17-5.06-3.52l-13.64-36.3h-70.18l-13.64,36.3
			c-0.88,2.35-2.57,3.52-5.06,3.52l-1.98-0.22c-1.32-0.58-2.31-1.57-2.97-2.97c-0.66-1.39-0.7-2.75-0.11-4.07l53.46-142.78
			c1.02-2.2,2.86-3.3,5.5-3.3c2.64,0,4.32,1.1,5.06,3.3l53.46,142.78c0.58,1.32,0.58,2.68,0,4.07
			C1087.68,1480.63,1086.72,1481.62,1085.4,1482.21z M1029.74,1349.11l-31.24,82.72h62.26L1029.74,1349.11z"/>
		<linearGradient id="SVGID_12_" gradientUnits="userSpaceOnUse" x1="489.0503" y1="1411.479" x2="1406.8223" y2="1411.479">
			<stop  offset="0" style="stop-color:#DA52FC"/>
			<stop  offset="0.0386" style="stop-color:#CD55FC"/>
			<stop  offset="0.16" style="stop-color:#AB5FFC"/>
			<stop  offset="0.2837" style="stop-color:#9066FC"/>
			<stop  offset="0.4093" style="stop-color:#7D6CFC"/>
			<stop  offset="0.5377" style="stop-color:#726FFC"/>
			<stop  offset="0.6732" style="stop-color:#6E70FC"/>
		</linearGradient>
		<path class="st14" d="M1213.22,1480.01c-9.39,0-14.08-10.78-14.08-32.34c0-9.38-4.18-17.16-12.54-23.32
			c-6.02-4.25-12.18-6.89-18.48-7.92c-0.15-0.14-0.3-0.22-0.44-0.22h-37.4v60.94c0,1.47-0.55,2.72-1.65,3.74
			c-1.1,1.03-2.39,1.54-3.85,1.54c-1.47,0-2.72-0.51-3.74-1.54c-1.03-1.02-1.54-2.27-1.54-3.74v-143.44c0-1.32,0.47-2.49,1.43-3.52
			c0.95-1.02,2.09-1.61,3.41-1.76h44c12.17,0,22.51,4.29,31.02,12.87c8.5,8.58,12.76,18.96,12.76,31.13
			c0,8.66-2.31,16.58-6.93,23.76c-4.62,7.19-10.75,12.54-18.37,16.06l2.2,1.1c5.86,3.38,10.78,7.92,14.74,13.64
			c3.96,5.72,5.94,13.5,5.94,23.32c0,9.83,1.39,16.14,4.18,18.92c3.08-0.29,5.06,0.88,5.94,3.52c0.73,3.52-0.44,5.87-3.52,7.04
			h-0.44l-2.2,0.22H1213.22z M1192.1,1395.53c6.3-6.45,9.46-14.22,9.46-23.32c0-9.09-3.27-16.86-9.79-23.32
			c-6.53-6.45-14.34-9.68-23.43-9.68h-38.06v66.44h38.94C1178.17,1405.36,1185.79,1401.98,1192.1,1395.53z"/>
		<linearGradient id="SVGID_13_" gradientUnits="userSpaceOnUse" x1="489.0503" y1="1411.479" x2="1406.8223" y2="1411.479">
			<stop  offset="0" style="stop-color:#DA52FC"/>
			<stop  offset="0.0386" style="stop-color:#CD55FC"/>
			<stop  offset="0.16" style="stop-color:#AB5FFC"/>
			<stop  offset="0.2837" style="stop-color:#9066FC"/>
			<stop  offset="0.4093" style="stop-color:#7D6CFC"/>
			<stop  offset="0.5377" style="stop-color:#726FFC"/>
			<stop  offset="0.6732" style="stop-color:#6E70FC"/>
		</linearGradient>
		<path class="st15" d="M1363.7,1479.57l-92.4-128.48v126.06c0,1.47-0.52,2.72-1.54,3.74c-1.03,1.03-2.28,1.54-3.74,1.54
			c-1.47,0-2.72-0.51-3.74-1.54c-1.03-1.02-1.54-2.27-1.54-3.74v-141.24c-0.74-2.34-0.3-4.1,1.32-5.28
			c1.61-1.17,3.19-1.65,4.73-1.43c1.54,0.22,2.67,0.92,3.41,2.09l93.28,129.36v-125.4c0-1.46,0.51-2.71,1.54-3.74
			c1.02-1.02,2.27-1.54,3.74-1.54c1.46,0,2.75,0.52,3.85,1.54c1.1,1.03,1.65,2.28,1.65,3.74v141.9c0,1.47-0.55,2.72-1.65,3.74
			c-1.1,1.03-2.46,1.54-4.07,1.54c-1.62,0-2.94-0.66-3.96-1.98L1363.7,1479.57z"/>
	</g>
	<g>
		<path class="st5" d="M810.63,1482.43h-79.2c-1.47,0-2.72-0.51-3.74-1.54c-1.03-1.02-1.54-2.27-1.54-3.74v-143.44
			c0-1.46,0.51-2.71,1.54-3.74c1.02-1.02,2.27-1.54,3.74-1.54c1.46,0,2.75,0.52,3.85,1.54c1.1,1.03,1.65,2.28,1.65,3.74v137.94h73.7
			c1.46,0,2.75,0.55,3.85,1.65c1.1,1.1,1.65,2.39,1.65,3.85c0,1.47-0.55,2.72-1.65,3.74
			C813.38,1481.92,812.09,1482.43,810.63,1482.43z"/>
		<path class="st5" d="M850.01,1477.15v-143.44c0-1.46,0.51-2.71,1.54-3.74c1.02-1.02,2.27-1.54,3.74-1.54h79.2
			c1.46,0,2.71,0.52,3.74,1.54c1.02,1.03,1.54,2.31,1.54,3.85s-0.52,2.83-1.54,3.85c-1.03,1.03-2.28,1.54-3.74,1.54h-73.7v60.94
			h64.46c1.46,0,2.71,0.55,3.74,1.65c1.02,1.1,1.54,2.39,1.54,3.85c0,1.47-0.52,2.72-1.54,3.74c-1.03,1.03-2.28,1.54-3.74,1.54
			h-64.46v60.72h73.7c1.46,0,2.71,0.52,3.74,1.54c1.02,1.03,1.54,2.31,1.54,3.85s-0.52,2.83-1.54,3.85
			c-1.03,1.03-2.28,1.54-3.74,1.54h-79.64c-1.32-0.14-2.46-0.69-3.41-1.65C850.48,1479.83,850.01,1478.62,850.01,1477.15z"/>
		<path class="st5" d="M1085.4,1482.21l-1.98,0.22c-2.5,0-4.18-1.17-5.06-3.52l-13.64-36.3h-70.18l-13.64,36.3
			c-0.88,2.35-2.57,3.52-5.06,3.52l-1.98-0.22c-1.32-0.58-2.31-1.57-2.97-2.97c-0.66-1.39-0.7-2.75-0.11-4.07l53.46-142.78
			c1.02-2.2,2.86-3.3,5.5-3.3c2.64,0,4.32,1.1,5.06,3.3l53.46,142.78c0.58,1.32,0.58,2.68,0,4.07
			C1087.68,1480.63,1086.72,1481.62,1085.4,1482.21z M1029.74,1349.11l-31.24,82.72h62.26L1029.74,1349.11z"/>
		<path class="st5" d="M1213.22,1480.01c-9.39,0-14.08-10.78-14.08-32.34c0-9.38-4.18-17.16-12.54-23.32
			c-6.02-4.25-12.18-6.89-18.48-7.92c-0.15-0.14-0.3-0.22-0.44-0.22h-37.4v60.94c0,1.47-0.55,2.72-1.65,3.74
			c-1.1,1.03-2.39,1.54-3.85,1.54c-1.47,0-2.72-0.51-3.74-1.54c-1.03-1.02-1.54-2.27-1.54-3.74v-143.44c0-1.32,0.47-2.49,1.43-3.52
			c0.95-1.02,2.09-1.61,3.41-1.76h44c12.17,0,22.51,4.29,31.02,12.87c8.5,8.58,12.76,18.96,12.76,31.13
			c0,8.66-2.31,16.58-6.93,23.76c-4.62,7.19-10.75,12.54-18.37,16.06l2.2,1.1c5.86,3.38,10.78,7.92,14.74,13.64
			c3.96,5.72,5.94,13.5,5.94,23.32c0,9.83,1.39,16.14,4.18,18.92c3.08-0.29,5.06,0.88,5.94,3.52c0.73,3.52-0.44,5.87-3.52,7.04
			h-0.44l-2.2,0.22H1213.22z M1192.1,1395.53c6.3-6.45,9.46-14.22,9.46-23.32c0-9.09-3.27-16.86-9.79-23.32
			c-6.53-6.45-14.34-9.68-23.43-9.68h-38.06v66.44h38.94C1178.17,1405.36,1185.79,1401.98,1192.1,1395.53z"/>
		<path class="st5" d="M1363.7,1479.57l-92.4-128.48v126.06c0,1.47-0.52,2.72-1.54,3.74c-1.03,1.03-2.28,1.54-3.74,1.54
			c-1.47,0-2.72-0.51-3.74-1.54c-1.03-1.02-1.54-2.27-1.54-3.74v-141.24c-0.74-2.34-0.3-4.1,1.32-5.28
			c1.61-1.17,3.19-1.65,4.73-1.43c1.54,0.22,2.67,0.92,3.41,2.09l93.28,129.36v-125.4c0-1.46,0.51-2.71,1.54-3.74
			c1.02-1.02,2.27-1.54,3.74-1.54c1.46,0,2.75,0.52,3.85,1.54c1.1,1.03,1.65,2.28,1.65,3.74v141.9c0,1.47-0.55,2.72-1.65,3.74
			c-1.1,1.03-2.46,1.54-4.07,1.54c-1.62,0-2.94-0.66-3.96-1.98L1363.7,1479.57z"/>
	</g>
</g>
</svg>
